<svg id="Layer_1" data-name="Layer 1" xmlns="http://www.w3.org/2000/svg" viewBox="0 0 125.17 124.41"><defs><style>.cls-1{fill:#020202;}</style></defs><title>Snipaste_2020-12-21_22-03-23 [转换]</title><path class="cls-1" d="M53.29,2A90.37,90.37,0,0,1,73,1.77C87.1,4.12,100.61,11,110.12,21.87A63.51,63.51,0,0,1,126.48,67,65.79,65.79,0,0,1,116,97.86c-9.66,14.2-25.07,24.55-42.11,27.27a65.21,65.21,0,0,1-41.74-8.07c-15.2-8.55-25.59-24.2-29.51-41C-1.62,55.92,5.23,34.17,19.52,19.52,28.87,10.71,40.48,4,53.29,2ZM29.61,22.12c5.16,6.24,11.26,11.59,16.87,17.4,6.09,5.86,11.69,12.23,18.15,17.7,9.93-9.93,19.78-20,29.81-29.78a26.5,26.5,0,0,0,3.68-4.5c-1.83-2.89-4.85-4.71-7.76-6.36A60.72,60.72,0,0,0,65,9.46,54,54,0,0,0,29.61,22.12ZM14.55,41.74c-3.94,9.78-6.28,20.75-3.8,31.2A52.81,52.81,0,0,0,23,98.52c5.93-4.89,11-10.68,16.52-16C45.56,76.31,51.86,70.36,57.74,64Q40.63,46.22,22.85,29.08A39.65,39.65,0,0,0,14.55,41.74Zm83.88-5.31C89.47,45.71,80.1,54.58,71.29,64c11.08,11.41,22.23,22.77,33.77,33.71,15.7-17.48,16.56-45.77,3-64.76-.9-.88-1.63-2.45-3.08-2.39C102.49,32.1,100.5,34.34,98.43,36.43ZM58,76.94c-9.16,9.52-18.77,18.59-27.8,28.22,7.1,6.77,16.65,10.17,26.16,11.79,11.94,1.94,24.29-1,34.79-6.76a21.32,21.32,0,0,0,6.74-5.32A15.93,15.93,0,0,0,94,100C85.23,91.45,76.67,82.68,68,74c-1.22-.9-2.3-2.54-4-2.46A31.23,31.23,0,0,0,58,76.94Z" transform="translate(-1.37 -1.34)"/><path class="cls-1" d="M91.41,52.6c3.33-1,7.5-.76,9.83,2.14,3.09,3.23,2.49,8.1,2.31,12.18C103.38,73,95.33,78.35,90.3,73.7c-5.1-3-4.24-9.62-3.87-14.65A7.19,7.19,0,0,1,91.41,52.6Z" transform="translate(-1.37 -1.34)"/><path class="cls-1" d="M29.21,53.94c3.23-1.12,7.78-1,9.78,2.2s1.75,7.27,1.52,10.93c-.22,4.58-4.92,8.48-9.5,7.43-4.3-.79-6.58-5.4-6.56-9.45C23.94,60.85,25.11,56,29.21,53.94Z" transform="translate(-1.37 -1.34)"/></svg>