<?xml version="1.0" encoding="utf-8"?>
<!-- Generator: Adobe Illustrator 22.1.0, SVG Export Plug-In . SVG Version: 6.00 Build 0)  -->
<svg version="1.1" id="Layer_1" xmlns="http://www.w3.org/2000/svg" xmlns:xlink="http://www.w3.org/1999/xlink" x="0px" y="0px"
	 viewBox="0 0 128 128" style="enable-background:new 0 0 128 128;" xml:space="preserve">
<style type="text/css">
	.st0{fill:#FFFFFF;stroke:#FFFFFF;stroke-linecap:round;stroke-miterlimit:10;}
	.st1{fill:#020202;}
</style>
<circle class="st0" cx="64" cy="64" r="63.5"/>
<g>
	<g>
		<path class="st1" d="M54.1,5.8C60.2,5,66.5,5,72.7,5.6c13.4,2.2,26.2,8.8,35.2,19c10.5,11.5,16.2,27.3,15.5,42.8
			c-0.9,10.3-4.2,20.5-10,29.2c-9.2,13.5-23.8,23.3-39.9,25.8c-13.5,1.9-27.8-0.7-39.5-7.6C19.6,106.7,9.7,91.9,6,76
			c-4-19.1,2.5-39.7,16-53.6C30.9,14,41.9,7.7,54.1,5.8z M31.6,24.9c4.9,5.9,10.7,11,16,16.5c5.8,5.6,11.1,11.6,17.2,16.8
			c9.4-9.4,18.7-18.9,28.2-28.2c1.3-1.3,2.5-2.7,3.5-4.3c-1.7-2.7-4.6-4.5-7.4-6c-7.3-4-15.7-6.2-24-6.7
			C53.1,12.8,40.8,16.9,31.6,24.9z M17.3,43.4c-3.7,9.3-6,19.7-3.6,29.6c1.6,8.9,5.5,17.4,11.6,24.2C31,92.6,35.8,87.1,41,82.1
			c5.7-5.9,11.7-11.5,17.3-17.5C47.5,53.3,36.4,42.3,25.2,31.4C21.9,34.9,19.1,38.9,17.3,43.4z M96.8,38.4
			c-8.5,8.8-17.4,17.2-25.7,26.1c10.5,10.8,21.1,21.6,32,31.9c14.9-16.6,15.7-43.4,2.9-61.4c-0.9-0.8-1.5-2.3-2.9-2.3
			C100.7,34.3,98.8,36.4,96.8,38.4z M58.5,76.8c-8.7,9-17.8,17.6-26.3,26.7c6.7,6.4,15.8,9.6,24.8,11.2c11.3,1.8,23-0.9,33-6.4
			c2.4-1.3,4.7-2.9,6.4-5c-0.8-1.8-2.2-3.3-3.6-4.6C84.3,90.5,76.2,82.2,68,74c-1.2-0.9-2.2-2.4-3.7-2.3C62,73,60.3,75,58.5,76.8z"
			/>
	</g>
	<path class="st1" d="M90.5,53.9c3.2-0.9,7.1-0.7,9.3,2c2.9,3.1,2.4,7.7,2.2,11.5c-0.2,5.8-7.8,10.8-12.6,6.4
		c-4.8-2.9-4-9.1-3.7-13.9C86,57.2,87.9,54.6,90.5,53.9z"/>
	<path class="st1" d="M31.6,55.1c3.1-1.1,7.4-1,9.3,2.1c1.9,3.1,1.7,6.9,1.4,10.4c-0.2,4.3-4.7,8-9,7c-4.1-0.7-6.2-5.1-6.2-9
		C26.6,61.7,27.7,57,31.6,55.1z"/>
</g>
</svg>
