<?xml version="1.0" encoding="utf-8"?>
<!-- Generator: Adobe Illustrator 22.1.0, SVG Export Plug-In . SVG Version: 6.00 Build 0)  -->
<svg version="1.1" id="Layer_1" xmlns="http://www.w3.org/2000/svg" xmlns:xlink="http://www.w3.org/1999/xlink" x="0px" y="0px"
	 viewBox="0 0 128 128" style="enable-background:new 0 0 128 128;" xml:space="preserve">
<g>
	<g>
		<path d="M58.4,2.2C66.3,1.1,74.3,3.1,82,5c13.3,3.4,24.2,12.9,32.5,23.6c11.5,16.4,14.4,38.7,6.6,57.3
			c-4.3,10.2-10.6,20-19.8,26.3c-6.6,4.5-13.5,9-21.5,10.5c-8.2,1.6-16.6,3.4-24.9,1.6c-18.1-2.9-35.1-13.9-44.1-30.1
			C3.1,82,1.7,66.8,3.7,52.8c2.1-16.3,12.4-31,25.9-40.1C38.1,6.7,48.2,3.5,58.4,2.2z M40.1,13.1c-4.5,2.3-9.3,4.6-12.1,9
			c1.2,3.4,4.2,5.7,6.6,8.2c10,9.5,19.3,19.7,29.4,29c9.3-7.4,17.3-16.2,25.3-25c3.3-3.7,7.4-6.7,10.1-10.9c1.1-1.6-0.6-3-1.8-4
			c-4.3-3.4-9.2-5.8-14.2-7.9C75.8,8.2,67.2,9.3,59,9.1C52.5,9,45.9,10.2,40.1,13.1z M20.2,29.1c-3.8,3.9-5.9,9.1-8.1,13.9
			c-3.3,7.5-3,15.9-3,23.9C8.7,79.5,14.2,91.9,23,100.7c8.7-6.8,15.8-15.3,23.8-22.9c4.5-4.4,9.1-8.7,12.9-13.7
			c-6-7.8-13.6-14.1-20.4-21.3c-4.5-4.2-8.4-9-13-12.9C24.6,28.4,21.9,27.1,20.2,29.1z M98.7,33.7c-4.7,5-9.6,9.7-14.4,14.6
			c-5.2,5.3-11,10.1-15.2,16.3c6.1,6.4,12.5,12.4,18.7,18.7c5.8,5.7,11.3,11.7,17.5,17.1C114,90.8,119.3,78.1,119,65
			c0.6-12.3-3.1-24.8-10.6-34.6c-0.9-1-1.8-2.3-3.3-2.2C102.6,29.5,100.6,31.7,98.7,33.7z M35.7,96.7c-2.3,2.3-5,4.5-6.3,7.6
			c-0.7,1.7,0.9,3.2,2,4.2c10.4,7.7,23.5,11.6,36.5,10.3c10.7-0.2,20.8-4.5,29.3-10.8c1.2-1,2.6-2.1,2.7-3.8c-1.5-2.8-3.8-4.9-6-7.1
			c-4.3-4-8.4-8.3-12.6-12.4c-5.6-5.5-10.7-11.5-17.2-16C54.2,77.7,45.3,87.6,35.7,96.7z"/>
	</g>
	<path d="M30.4,22.1C42.5,12,59.3,8.6,74.6,11.4c8.3,1.7,16.8,4.9,22.6,11.3C92,29,86.1,34.6,80.2,40.2C74.7,45.5,70,51.5,64.1,56.3
		C58,50.9,52.5,44.9,46.8,39.2C41.3,33.6,35.2,28.4,30.4,22.1z"/>
	<g>
		<path d="M12.4,76.7c-3.2-16.1-1.1-34.6,10.5-47.1c8.8,8,16.8,16.9,25.5,25.1c2.7,2.7,5.7,5.2,7.5,8.5c-0.8,4.3-4.6,7.1-7.5,10.1
			c-8.4,7.9-16.1,16.5-24.7,24.2C17.2,92.4,14.7,84.3,12.4,76.7z M29.5,52.4c-6.4,2.2-5.7,10.3-5.3,15.7c0,4.6,4.3,8.4,8.8,8.1
			c4.3-0.4,8.5-3.8,9-8.3c0.6-4.7,0.5-10.2-3.1-13.8C36.5,51.6,32.6,51.3,29.5,52.4z"/>
	</g>
	<g>
		<path d="M92.3,43.3c4.4-4.5,8.6-9,13.6-12.9c5.1,7.9,9.9,16.5,10.9,26c0.8,7.8,0.7,15.8-2,23.3c-2.2,6.3-4.9,12.8-10.4,17
			c-5.8-5.2-11.1-10.9-16.6-16.4c-5.3-5.4-10.9-10.6-16-16.2C78.3,56.8,85.5,50.2,92.3,43.3z M90.5,52.5C85,55.3,85.9,62.9,86.1,68
			c0.2,6.5,8.9,10,13.8,5.9c4.2-2.4,4.3-7.7,4-12c-0.3-3.2-0.6-7.3-3.9-8.9C97.1,51.8,93.6,51.6,90.5,52.5z"/>
	</g>
	<path d="M46.3,89.3c5.8-6,11.5-12.1,17.8-17.6c5.1,3.6,9.3,8.2,13.6,12.6c6.5,6.8,13.5,13.1,19.8,20.2c-9.7,9-23.4,12.7-36.5,12.4
		c-10.6-0.9-21.3-4.4-29.7-11C35,99.2,41.3,94.8,46.3,89.3z"/>
</g>
</svg>
